<mxfile host="app.diagrams.net" modified="2023-11-15T11:16:06.912Z" agent="Mozilla/5.0 (Windows NT 10.0; Win64; x64) AppleWebKit/537.36 (KHTML, like Gecko) Chrome/119.0.0.0 Safari/537.36" version="22.1.1" etag="LTT66jgZ9RzdXo_-qNFV" type="github">
  <diagram name="Trang-1" id="HECpZpGv6Dpq_VaQE1Zk">
    <mxGraphModel>
      <root>
        <mxCell id="0" />
        <mxCell id="1" parent="0" />
      </root>
    </mxGraphModel>
  </diagram>
</mxfile>
